<svg width="22" height="22" viewBox="0 0 22 22" fill="none" xmlns="http://www.w3.org/2000/svg">
<path fill-rule="evenodd" clip-rule="evenodd" d="M14.3 3.29999V4.69699C14.3 4.91579 14.3869 5.12563 14.5416 5.28035C14.6964 5.43507 14.9062 5.52199 15.125 5.52199C15.3438 5.52199 15.5536 5.43507 15.7084 5.28035C15.8631 5.12563 15.95 4.91579 15.95 4.69699V3.29999H18.425C18.75 3.29999 19.0719 3.36401 19.3721 3.48839C19.6724 3.61277 19.9453 3.79507 20.1751 4.0249C20.4049 4.25472 20.5872 4.52757 20.7116 4.82785C20.836 5.12813 20.9 5.44997 20.9 5.77499V8.66579C20.9 8.83637 20.8471 9.00276 20.7486 9.14203C20.6501 9.28131 20.5108 9.38663 20.35 9.44349C20.0277 9.55687 19.7486 9.76749 19.5511 10.0463C19.3536 10.3251 19.2476 10.6583 19.2476 11C19.2476 11.3416 19.3536 11.6749 19.5511 11.9537C19.7486 12.2325 20.0277 12.4431 20.35 12.5565C20.68 12.6731 20.9 12.9855 20.9 13.3342V16.225C20.9 16.55 20.836 16.8718 20.7116 17.1721C20.5872 17.4724 20.4049 17.7453 20.1751 17.9751C19.9453 18.2049 19.6724 18.3872 19.3721 18.5116C19.0719 18.636 18.75 18.7 18.425 18.7H15.95V17.303C15.95 17.0842 15.8631 16.8743 15.7084 16.7196C15.5536 16.5649 15.3438 16.478 15.125 16.478C14.9062 16.478 14.6964 16.5649 14.5416 16.7196C14.3869 16.8743 14.3 17.0842 14.3 17.303V18.7H3.57501C2.9186 18.7 2.28907 18.4392 1.82492 17.9751C1.36076 17.5109 1.10001 16.8814 1.10001 16.225V13.3342C1.10001 12.9844 1.32001 12.6731 1.65001 12.5565C1.9723 12.4431 2.25145 12.2325 2.44893 11.9537C2.6464 11.6749 2.75246 11.3416 2.75246 11C2.75246 10.6583 2.6464 10.3251 2.44893 10.0463C2.25145 9.76749 1.9723 9.55687 1.65001 9.44349C1.48918 9.38663 1.34993 9.28131 1.25143 9.14203C1.15293 9.00276 1.10003 8.83637 1.10001 8.66579V5.77499C1.10001 5.11858 1.36076 4.48905 1.82492 4.0249C2.28907 3.56075 2.9186 3.29999 3.57501 3.29999H14.3ZM15.95 8.13559C15.95 7.91678 15.8631 7.70694 15.7084 7.55222C15.5536 7.39751 15.3438 7.31059 15.125 7.31059C14.9062 7.31059 14.6964 7.39751 14.5416 7.55222C14.3869 7.70694 14.3 7.91678 14.3 8.13559V9.28179C14.3 9.50059 14.3869 9.71043 14.5416 9.86515C14.6964 10.0199 14.9062 10.1068 15.125 10.1068C15.3438 10.1068 15.5536 10.0199 15.7084 9.86515C15.8631 9.71043 15.95 9.50059 15.95 9.28179V8.13559ZM15.95 12.7193C15.95 12.5005 15.8631 12.2906 15.7084 12.1359C15.5536 11.9812 15.3438 11.8943 15.125 11.8943C14.9062 11.8943 14.6964 11.9812 14.5416 12.1359C14.3869 12.2906 14.3 12.5005 14.3 12.7193V13.8644C14.3 14.0832 14.3869 14.293 14.5416 14.4478C14.6964 14.6025 14.9062 14.6894 15.125 14.6894C15.3438 14.6894 15.5536 14.6025 15.7084 14.4478C15.8631 14.293 15.95 14.0832 15.95 13.8644V12.7193ZM6.60001 11.825C6.60001 11.6062 6.68692 11.3963 6.84164 11.2416C6.99636 11.0869 7.2062 11 7.42501 11H11.275C11.4938 11 11.7037 11.0869 11.8584 11.2416C12.0131 11.3963 12.1 11.6062 12.1 11.825C12.1 12.0438 12.0131 12.2536 11.8584 12.4084C11.7037 12.5631 11.4938 12.65 11.275 12.65H7.42501C7.2062 12.65 6.99636 12.5631 6.84164 12.4084C6.68692 12.2536 6.60001 12.0438 6.60001 11.825ZM6.60001 14.575C6.60001 14.3562 6.68692 14.1463 6.84164 13.9916C6.99636 13.8369 7.2062 13.75 7.42501 13.75H9.07501C9.29381 13.75 9.50365 13.8369 9.65837 13.9916C9.81309 14.1463 9.90001 14.3562 9.90001 14.575C9.90001 14.7938 9.81309 15.0036 9.65837 15.1584C9.50365 15.3131 9.29381 15.4 9.07501 15.4H7.42501C7.2062 15.4 6.99636 15.3131 6.84164 15.1584C6.68692 15.0036 6.60001 14.7938 6.60001 14.575Z" fill="#006060"/>
</svg>
